<?xml version="1.0" encoding="UTF-8"?>
<svg width="1200pt" height="1200pt" version="1.1" viewBox="0 0 1200 1200" xmlns="http://www.w3.org/2000/svg">
 <path d="m540.56 578.06c-2.625 0-5.25-0.5625-7.6875-1.6875l-112.31-51c-42.562 24.375-90.562 37.125-139.31 37.125-155.06 0-281.25-126.19-281.25-281.25s126.19-281.25 281.25-281.25 281.25 126.19 281.25 281.25c0 59.438-18.375 116.06-53.062 164.25l48.188 106.12c3.1875 7.125 1.6875 15.562-3.75 21-3.75 3.5625-8.4375 5.4375-13.312 5.4375zm-259.31-540.56c-134.44 0-243.75 109.31-243.75 243.75s109.31 243.75 243.75 243.75c45.188 0 89.438-12.75 128.25-36.75 5.25-3.375 12-3.75 17.625-1.125l75.75 34.312-32.062-70.688c-2.8125-6.375-2.0625-13.875 2.25-19.312 33.938-43.312 51.938-95.25 51.938-150.19 0-134.44-109.31-243.75-243.75-243.75z" fill="#600a68"/>
 <path d="m487.69 756.94 52.875-116.25-121.12 55.125c-40.312-24.938-87.375-39.562-138.19-39.562-144.94 0-262.5 117.56-262.5 262.5s117.56 262.5 262.5 262.5 262.5-117.56 262.5-262.5c0-61.125-21-117.19-56.062-161.81z" fill="#600a68"/>
 <path d="m918.75 1200c-155.06 0-281.25-126.19-281.25-281.25 0-58.5 17.812-114.38 51.75-162.19l-49.125-108.19c-3.1875-7.125-1.6875-15.562 3.75-21 5.4375-5.625 13.875-7.125 21-3.75l113.44 51.562c42.938-24.75 91.312-37.688 140.44-37.688 155.06 0 281.25 126.19 281.25 281.25s-126.19 281.25-281.25 281.25zm-223.88-521.44 33 72.562c2.8125 6.375 2.0625 13.688-2.25 19.125-33 43.125-50.625 94.5-50.625 148.5 0 134.44 109.31 243.75 243.75 243.75s243.75-109.31 243.75-243.75-109.31-243.75-243.75-243.75c-45.562 0-90.188 12.938-129.19 37.312-5.4375 3.375-12 3.75-17.625 1.125z" fill="#600a68"/>
 <path d="m918.75 18.75c-144.94 0-262.5 117.56-262.5 262.5 0 60.188 20.438 115.5 54.562 159.94l-53.625 118.12 122.44-55.688c40.5 25.312 87.938 40.125 139.12 40.125 144.94 0 262.5-117.56 262.5-262.5s-117.56-262.5-262.5-262.5z" fill="#600a68"/>
 <path d="m206.25 187.5h187.5v37.5h-187.5z" fill="#600a68"/>
 <path d="m168.75 262.5h225v37.5h-225z" fill="#600a68"/>
 <path d="m168.75 337.5h112.5v37.5h-112.5z" fill="#600a68"/>
 <path d="m318.75 337.5h37.5v37.5h-37.5z" fill="#600a68"/>
 <path d="m843.75 825h187.5v37.5h-187.5z" fill="#600a68"/>
 <path d="m806.25 900h225v37.5h-225z" fill="#600a68"/>
 <path d="m806.25 975h112.5v37.5h-112.5z" fill="#600a68"/>
 <path d="m956.25 975h37.5v37.5h-37.5z" fill="#600a68"/>
</svg>
