<svg xmlns="http://www.w3.org/2000/svg" version="1.1" xmlns:xlink="http://www.w3.org/1999/xlink" width="512" height="512" x="0" y="0" viewBox="0 0 128 128" style="enable-background:new 0 0 512 512" xml:space="preserve" class=""><g><circle cx="64" cy="63.95" r="30.23" fill="#ebebeb" opacity="1" data-original="#bdcbf5" class=""></circle><circle cx="64" cy="64" r="20.1" fill="#cb414b" opacity="1" data-original="#ff4155" class=""></circle><path fill="#ebebeb" d="M64 78.38A14.38 14.38 0 1 1 78.38 64 14.4 14.4 0 0 1 64 78.38z" opacity="1" data-original="#dbdfee" class=""></path><path fill="#cb414b" d="M64 72.66A8.66 8.66 0 1 1 72.66 64 8.68 8.68 0 0 1 64 72.66z" opacity="1" data-original="#ff4155" class=""></path><circle cx="103.4" cy="103.35" r="17.34" fill="#b8357b" opacity="1" data-original="#e10459" class=""></circle><circle cx="24.65" cy="24.65" r="17.34" fill="#ebebeb" opacity="1" data-original="#dbdfee" class=""></circle><path fill="#5eac29" d="M41.7 27.78A17.34 17.34 0 0 1 7.62 28l10.78-7.61 12.12 8.51 6.53-5z" opacity="1" data-original="#6faf45" class=""></path><circle cx="103.4" cy="24.65" r="17.34" fill="#ffbc50" opacity="1" data-original="#ffdc41" class=""></circle><path fill="#ebebeb" d="M96.31 98.44v9.83a2.67 2.67 0 0 0 4 2.33l8.85-4.91a2.67 2.67 0 0 0 0-4.67l-8.85-4.91a2.66 2.66 0 0 0-4 2.33z" opacity="1" data-original="#dbdfee" class=""></path><path fill="#ebebeb" d="M42 103.35A17.35 17.35 0 1 1 24.65 86 17.33 17.33 0 0 1 42 103.35z" opacity="1" data-original="#3b579f" class=""></path><path fill="#4d72ac" d="M34.61 116.06v1.49a17.34 17.34 0 0 1-19.93 0v-1.49a10 10 0 0 1 19.93 0z" opacity="1" data-original="#49b2f7" class=""></path><path fill="#4d72ac" d="M18.67 100.12a6 6 0 1 1 6 6 6 6 0 0 1-6-6z" opacity="1" data-original="#1ea3ea" class=""></path><path d="M57.41 35.94a1.12 1.12 0 0 0 .32 0 29.05 29.05 0 0 1 12.28 0 1.5 1.5 0 0 0 .64-2.94 32 32 0 0 0-13.56 0 1.5 1.5 0 0 0 .32 3zM64 74.16A10.16 10.16 0 1 0 53.84 64 10.17 10.17 0 0 0 64 74.16zm0-17.32A7.16 7.16 0 1 1 56.84 64 7.17 7.17 0 0 1 64 56.84z" fill="#000000" opacity="1" data-original="#000000" class=""></path><path d="M64 87.56a1.5 1.5 0 0 0 1.5-1.5v-.54a21.59 21.59 0 0 0 20-20h.54a1.5 1.5 0 0 0 0-3h-.54a21.59 21.59 0 0 0-20-20v-.54a1.5 1.5 0 0 0-3 0v.54a21.59 21.59 0 0 0-20 20h-.54a1.5 1.5 0 0 0 0 3h.54a21.59 21.59 0 0 0 20 20v.54a1.5 1.5 0 0 0 1.5 1.5zm-12.79-25a12.9 12.9 0 0 1 11.35-11.35 1.49 1.49 0 0 0 2.88 0 12.9 12.9 0 0 1 11.35 11.35 1.49 1.49 0 0 0 0 2.88 12.9 12.9 0 0 1-11.35 11.35 1.49 1.49 0 0 0-2.88 0 12.9 12.9 0 0 1-11.35-11.35 1.49 1.49 0 0 0 0-2.88zm14.29 20V79.8a15.89 15.89 0 0 0 14.3-14.3h2.72A18.6 18.6 0 0 1 65.5 82.52zm17-20h-2.7A15.89 15.89 0 0 0 65.5 48.2v-2.72A18.6 18.6 0 0 1 82.52 62.5zm-20-17v2.64a15.89 15.89 0 0 0-14.3 14.3h-2.72A18.6 18.6 0 0 1 62.5 45.48zm-17 20h2.7A15.89 15.89 0 0 0 62.5 79.8v2.72A18.6 18.6 0 0 1 45.48 65.5z" fill="#000000" opacity="1" data-original="#000000" class=""></path><path d="M103.4 84.51A18.79 18.79 0 0 0 91.19 89l-3.73-3.73a31.64 31.64 0 0 0 0-42.67l3.69-3.69a18.78 18.78 0 0 0 18.43 3.52 1.5 1.5 0 0 0-1-2.84 15.55 15.55 0 0 1-5.19.88 15.85 15.85 0 1 1 15.84-15.84 15.69 15.69 0 0 1-3.35 9.74 1.5 1.5 0 0 0 2.36 1.84 18.61 18.61 0 0 0 4-11.58A18.84 18.84 0 1 0 89 36.8l-3.69 3.69a31.89 31.89 0 0 0-5.1-3.8 1.5 1.5 0 0 0-1.54 2.58A28.73 28.73 0 1 1 35.27 64a28.49 28.49 0 0 1 8.4-20.3 29.71 29.71 0 0 1 5.41-4.24 1.5 1.5 0 1 0-1.56-2.56 31.83 31.83 0 0 0-4.9 3.65L39 36.83A18.84 18.84 0 1 0 5.8 24.65 18 18 0 0 0 6.13 28a1.26 1.26 0 0 0 0 .28A18.81 18.81 0 0 0 36.88 39l3.64 3.65a31.71 31.71 0 0 0 0 42.69L36.83 89A19 19 0 1 0 39 91.12l3.71-3.71a31.67 31.67 0 0 0 42.68 0l3.73 3.74a18.82 18.82 0 1 0 14.33-6.64zM24.65 8.8a15.87 15.87 0 0 1 15.84 15.85v.14L38 22.71a1.51 1.51 0 0 0-1.89 0L30.48 27l-11.22-7.84a1.5 1.5 0 0 0-1.73 0l-8.7 6.1v-.62A15.87 15.87 0 0 1 24.65 8.8zM9.32 28.59l9.08-6.36 11.26 7.9a1.52 1.52 0 0 0 1.78 0L37 25.78l3 2.56a15.82 15.82 0 0 1-30.72.25zm6.86 88.15v-.68a8.47 8.47 0 0 1 16.93 0v.68a15.79 15.79 0 0 1-16.93 0zm8.47-12.14a4.49 4.49 0 1 1 4.48-4.48 4.49 4.49 0 0 1-4.48 4.48zM36 114.42a11.36 11.36 0 0 0-6.4-8.69 7.48 7.48 0 1 0-9.86 0 11.48 11.48 0 0 0-6.41 8.69 15.85 15.85 0 1 1 22.67 0zm67.42 4.78a15.85 15.85 0 1 1 15.84-15.85 15.86 15.86 0 0 1-15.86 15.85z" fill="#000000" opacity="1" data-original="#000000" class=""></path><path d="M97.31 23H99a1.5 1.5 0 0 0 0-3h-1.69a1.5 1.5 0 0 0 0 3zM109.5 20h-6.15a1.5 1.5 0 0 0 0 3h6.15a1.5 1.5 0 0 0 0-3zM109.5 26.33h-1.66a1.5 1.5 0 0 0 0 3h1.66a1.5 1.5 0 0 0 0-3zM97.31 29.33h6.14a1.5 1.5 0 0 0 0-3h-6.14a1.5 1.5 0 0 0 0 3zM109.85 99.71 101 94.8a4.16 4.16 0 0 0-6.19 3.64v9.83a4.16 4.16 0 0 0 6.19 3.64l8.85-4.91a4.17 4.17 0 0 0 0-7.29zm-1.46 4.66-8.85 4.92a1.17 1.17 0 0 1-1.73-1v-9.85a1.16 1.16 0 0 1 1.73-1l8.85 4.91a1.16 1.16 0 0 1 0 2.02z" fill="#000000" opacity="1" data-original="#000000" class=""></path><circle cx="64" cy="64" r="1.5" fill="#000000" opacity="1" data-original="#000000" class=""></circle><circle cx="31.51" cy="16.11" r="1.5" fill="#000000" opacity="1" data-original="#000000" class=""></circle></g></svg>