<svg xmlns="http://www.w3.org/2000/svg" version="1.1" xmlns:xlink="http://www.w3.org/1999/xlink" width="512" height="512" x="0" y="0" viewBox="0 0 64 64" style="enable-background:new 0 0 512 512" xml:space="preserve" class=""><g><g data-name="Layer 33"><rect width="50" height="6" x="7" y="21" fill="#8c9bb2" rx="2" opacity="1" data-original="#baced3" class=""></rect><path fill="#ebebeb" d="m9 27 19 20v14l8-4V47l19-20z" opacity="1" data-original="#d6e4e8" class=""></path><circle cx="32" cy="12" r="5" fill="#ffbc50" opacity="1" data-original="#fcbe42" class=""></circle><path fill="#b8357b" d="M14 3 9 13h10z" opacity="1" data-original="#f97878" class=""></path><path fill="#4dadb3" d="M45 3h10v10H45z" opacity="1" data-original="#6dbc53" class=""></path><path d="M55 20h-4v-4h-2v4H15v-4h-2v4H9a3 3 0 0 0-3 3v2a3 3 0 0 0 2.525 2.952L27 47.4V61a1 1 0 0 0 1.447.9l8-4A1 1 0 0 0 37 57v-9.6l18.475-19.448A3 3 0 0 0 58 25v-2a3 3 0 0 0-3-3zm1 5a1 1 0 0 1-1 1h-4v2h1.671l-17.4 18.312A1 1 0 0 0 35 47v9.382l-6 3V47a1 1 0 0 0-.275-.688L11.329 28H49v-2H9a1 1 0 0 1-1-1v-2a1 1 0 0 1 1-1h46a1 1 0 0 1 1 1z" fill="#000000" opacity="1" data-original="#000000" class=""></path><path d="M32 18a6 6 0 1 0-6-6 6.006 6.006 0 0 0 6 6zm0-10a4 4 0 1 1-4 4 4 4 0 0 1 4-4zM9 14h10a1 1 0 0 0 .895-1.447l-5-10a1.042 1.042 0 0 0-1.79 0l-5 10A1 1 0 0 0 9 14zm5-8.764L17.382 12h-6.764zM45 14h10a1 1 0 0 0 1-1V3a1 1 0 0 0-1-1H45a1 1 0 0 0-1 1v10a1 1 0 0 0 1 1zm1-10h8v8h-8zM22 10h2v8h-2zM40 10h2v8h-2zM40 2h2v4h-2zM22 2h2v4h-2z" fill="#000000" opacity="1" data-original="#000000" class=""></path></g></g></svg>